<?xml version="1.0" encoding="UTF-8"?>
<svg id="svg56032" xmlns="http://www.w3.org/2000/svg" viewBox="0 0 561.16 750.37">
    <defs>
        <style>
            .cls-1 {
            fill: #fff;
            stroke: #000;
            stroke-width: 8.55px;
            }

            .cls-1, .cls-2, .cls-3, .cls-4, .cls-5 {
            stroke-miterlimit: 3.31;
            }

            .cls-1, .cls-4, .cls-5, .cls-6 {
            fill-rule: evenodd;
            }

            .cls-2 {
            stroke-width: 6.78px;
            }

            .cls-2, .cls-3, .cls-4, .cls-7, .cls-8, .cls-5 {
            stroke: #fff;
            }

            .cls-2, .cls-3, .cls-7, .cls-8 {
            stroke-linecap: round;
            }

            .cls-3 {
            stroke-width: 6.78px;
            }

            .cls-4 {
            stroke-width: 6.84px;
            }

            .cls-7 {
            stroke-width: 9.63px;
            }

            .cls-7, .cls-8 {
            stroke-miterlimit: 5.7;
            }

            .cls-8 {
            stroke-width: 11.91px;
            }

            .cls-5 {
            stroke-width: 10.83px;
            }
        </style>
    </defs>
    <g id="layer1">
        <g id="g14849">
            <g id="g14826">
                <rect id="rect4133" class="cls-7" x="199.89" y="273.15" width="100.88" height="249.45"/>
                <rect id="rect5104" class="cls-8" x="323.14" y="328.22" width="86.39" height="202.4"/>
                <path id="path2190" class="cls-6" d="M0,106.85c15.54-26.95,33.86-35.62,66.77-39.18,26.73-2.89,63.08-2.4,115.38-5.59,18.66-13.23-54.27-30.53,62.07-35.62-1.36-11.53,2.37-21.03,8.14-26.46,1.36,35.95,2.71,92.26,4.07,138.39l6.11,8.14c17.64-.68,35.28-1.36,52.91-2.04,14.92-10.18-45.45-28.49,44.77-30.53,1.36-11.53,6.78-14.92,10.18-22.39,1.36,35.28,2.71,70.55,4.07,105.83,18.95,27.29,30.86,79.24,44.77,124.15-37.65-10.18-67.16-10.18-100.74,0,8.48-27.48,19-87.51,43.76-125.16,.68-14.59,1.36-29.17,2.04-43.76-15.6,7.46-31.21,14.92-46.81,22.39-13.57-.68-27.14-1.36-40.7-2.04,12.89,31.21,25.78,62.41,38.67,93.62-42.74-13.57-87.51-14.92-128.22,2.04,13.57-33.24,27.14-66.48,40.7-99.72-23.07-1.36-37.99-4.75-63.09,14.25,14.92-37.31,40.03-31.88,73.27-36.63,2.04-2.71,6.11-7.46,8.14-10.18-.34-20.01-.68-40.03-1.02-60.04-66.48-12.89-31.21,10.85-59.02,22.39-55.97,8.14-127.2-30.53-186.22,8.14Z"/>
            </g>
            <path id="path7058" class="cls-1" d="M225.91,630.91v-199.45l15.26-1.02v-18.32h26.46v20.35h22.39v-24.42h24.42v24.42h26.46v-26.46h30.53v24.42h17.3l3.05,183.17"/>
            <path id="path5108" class="cls-4" d="M410.09,396.86l48.84-97.69,46.81,99.72-95.65-2.04Z"/>
            <path id="path6079" class="cls-4" d="M138.39,410.09l48.84-97.69,46.81,99.72-95.65-2.04h0Z"/>
            <path id="path6081" class="cls-4" d="M385.67,397.88l48.84-97.69,46.81,99.72-95.65-2.04h0Z"/>
            <rect id="rect6083" class="cls-2" x="150.63" y="410.12" width="71.17" height="217.71"/>
            <rect id="rect6085" class="cls-3" x="417.23" y="398.93" width="77.29" height="211.48"/>
            <rect id="rect6087" class="cls-3" x="395.87" y="398.93" width="81.36" height="217.7"/>
            <rect id="rect8998" x="274.75" y="514.9" width="69.2" height="149.59" rx="28.58" ry="28.58"/>
            <path id="path9971" class="cls-6" d="M291.03,460.97c10.18-.68,20.35-1.36,30.53-2.04-3.39,12.21,11.53,32.56-14.25,44.77-25.1-9.5-9.5-31.21-16.28-42.74Z"/>
            <path id="path10944" class="cls-5" d="M109.9,606.49c0,24.76-2.04,80.05-2.04,104.81,296.12,93.28,355.14-22.05,448.76-165.87-206.57,136.36-321.56,79.37-446.72,61.06Z"/>
        </g>
    </g>
</svg>